<svg xmlns="http://www.w3.org/2000/svg" viewBox="0 0 400 400" role="img">

  <rect width="400" height="400" fill="#ffffff"/>
  <ellipse cx="200" cy="338" rx="96" ry="12" fill="#1c2a22" opacity=".07"/>
<path d="M200 300 L160 148" fill="none" stroke="#1c2a22" stroke-width="5"
     stroke-linecap="round" stroke-linejoin="round"/>
<path d="M200 300 L200 138" fill="none" stroke="#1c2a22" stroke-width="5"
     stroke-linecap="round" stroke-linejoin="round"/>
<path d="M200 300 L240 148" fill="none" stroke="#1c2a22" stroke-width="5"
     stroke-linecap="round" stroke-linejoin="round"/>
<ellipse cx="160" cy="170" rx="26" ry="14" fill="#d7b49a"
          stroke="#1c2a22" stroke-width="6" transform="rotate(-30 160 170)"/>
<ellipse cx="168" cy="214" rx="26" ry="14" fill="#d7b49a"
          stroke="#1c2a22" stroke-width="6" transform="rotate(-30 168 214)"/>
<ellipse cx="176" cy="254" rx="26" ry="14" fill="#d7b49a"
          stroke="#1c2a22" stroke-width="6" transform="rotate(-30 176 254)"/>
<ellipse cx="240" cy="170" rx="26" ry="14" fill="#d7b49a"
          stroke="#1c2a22" stroke-width="6" transform="rotate(30 240 170)"/>
<ellipse cx="232" cy="214" rx="26" ry="14" fill="#d7b49a"
          stroke="#1c2a22" stroke-width="6" transform="rotate(30 232 214)"/>
<ellipse cx="224" cy="254" rx="26" ry="14" fill="#d7b49a"
          stroke="#1c2a22" stroke-width="6" transform="rotate(30 224 254)"/>
<ellipse cx="200" cy="160" rx="26" ry="14" fill="#a98266"
       stroke="#1c2a22" stroke-width="6"/>
<rect x="172" y="288" width="56" height="26" rx="6" fill="#74584a"
     stroke="#1c2a22" stroke-width="6" stroke-linejoin="round"/>
</svg>